/* XPM */
static char *tiny_microchip[] = {
/* columns rows colors chars-per-pixel */
"16 16 2 1 ",
"  c #e5d5ae",
". c None",
/* pixels */
".... ..  .. ....",
"....  .  .. ....",
"...          ...",
"..            ..",
"    ........    ",
".   .      .   .",
"..  .      .  ..",
"    .      .    ",
"    .      .    ",
"..  .      .  ..",
"..  .      .  ..",
"    ........    ",
"..            ..",
"...          ...",
"....  .  .. ....",
".... ..  .. ...."
};
