/* XPM */
static char *tiny_mem_16[] = {
/* columns rows colors chars-per-pixel */
"16 14 2 1 ",
"  c #e5d5ae",
". c None",
/* pixels */
"................",
"................",
"                ",
"   ..      ..   ",
"   ..      ..   ",
".. .......... ..",
"                ",
"                ",
"................",
"                ",
"                ",
"  .  .    .  .  ",
"................",
"................"
};
